<svg xmlns="http://www.w3.org/2000/svg" xmlns:xlink="http://www.w3.org/1999/xlink" width="500" zoomAndPan="magnify" viewBox="0 0 375 374.999991" height="500" preserveAspectRatio="xMidYMid meet" version="1.0"><defs><g/><clipPath id="ecdedfba0a"><path d="M 54.066406 82.007812 L 187.566406 82.007812 L 187.566406 248.507812 L 54.066406 248.507812 Z M 54.066406 82.007812 " clip-rule="nonzero"/></clipPath><clipPath id="fb0e8d53e4"><path d="M 144 111 L 187.566406 111 L 187.566406 157 L 144 157 Z M 144 111 " clip-rule="nonzero"/></clipPath><clipPath id="a47e22a30e"><path d="M 137 82.007812 L 187.566406 82.007812 L 187.566406 132 L 137 132 Z M 137 82.007812 " clip-rule="nonzero"/></clipPath><clipPath id="93739430e2"><path d="M 187.5 225 L 331.640625 225 L 331.640625 337.5 L 187.5 337.5 Z M 187.5 225 " clip-rule="nonzero"/></clipPath><clipPath id="bbe5f91465"><path d="M 207 225 L 311.796875 225 C 316.96875 225 321.929688 227.054688 325.585938 230.710938 C 329.242188 234.367188 331.296875 239.328125 331.296875 244.5 L 331.296875 318 C 331.296875 323.171875 329.242188 328.132812 325.585938 331.789062 C 321.929688 335.445312 316.96875 337.5 311.796875 337.5 L 207 337.5 C 201.828125 337.5 196.867188 335.445312 193.210938 331.789062 C 189.554688 328.132812 187.5 323.171875 187.5 318 L 187.5 244.5 C 187.5 239.328125 189.554688 234.367188 193.210938 230.710938 C 196.867188 227.054688 201.828125 225 207 225 Z M 207 225 " clip-rule="nonzero"/></clipPath><clipPath id="18a6e7b626"><path d="M 187.5 248.800781 L 228.75 248.800781 L 228.75 303.550781 L 187.5 303.550781 Z M 187.5 248.800781 " clip-rule="nonzero"/></clipPath><clipPath id="7f313458d4"><path d="M 66.585938 155.738281 L 182.554688 155.738281 L 182.554688 211.332031 L 66.585938 211.332031 Z M 66.585938 155.738281 " clip-rule="nonzero"/></clipPath><clipPath id="40635397ee"><path d="M 86.085938 155.738281 L 163 155.738281 C 168.171875 155.738281 173.128906 157.792969 176.785156 161.449219 C 180.445312 165.105469 182.5 170.066406 182.5 175.238281 L 182.5 191.832031 C 182.5 197.003906 180.445312 201.964844 176.785156 205.621094 C 173.128906 209.277344 168.171875 211.332031 163 211.332031 L 86.085938 211.332031 C 80.914062 211.332031 75.953125 209.277344 72.296875 205.621094 C 68.636719 201.964844 66.585938 197.003906 66.585938 191.832031 L 66.585938 175.238281 C 66.585938 170.066406 68.636719 165.105469 72.296875 161.449219 C 75.953125 157.792969 80.914062 155.738281 86.085938 155.738281 Z M 86.085938 155.738281 " clip-rule="nonzero"/></clipPath></defs><rect x="-37.5" width="450" fill="#ffffff" y="-37.499999" height="449.999989" fill-opacity="1"/><rect x="-37.5" width="450" fill="#ffffff" y="-37.499999" height="449.999989" fill-opacity="1"/><g clip-path="url(#ecdedfba0a)"><path fill="#de3b38" d="M 70.753906 82.007812 L 137.503906 82.007812 L 162.535156 106.984375 L 187.566406 131.957031 L 187.566406 231.855469 C 187.566406 232.398438 187.539062 232.945312 187.484375 233.484375 C 187.429688 234.027344 187.351562 234.566406 187.246094 235.101562 C 187.136719 235.636719 187.003906 236.164062 186.847656 236.6875 C 186.6875 237.210938 186.503906 237.722656 186.292969 238.226562 C 186.085938 238.730469 185.851562 239.222656 185.59375 239.703125 C 185.335938 240.183594 185.054688 240.652344 184.753906 241.105469 C 184.449219 241.558594 184.125 241.996094 183.777344 242.417969 C 183.429688 242.839844 183.0625 243.242188 182.675781 243.628906 C 182.289062 244.011719 181.886719 244.378906 181.464844 244.722656 C 181.042969 245.070312 180.601562 245.394531 180.148438 245.699219 C 179.695312 246 179.226562 246.28125 178.742188 246.539062 C 178.261719 246.792969 177.769531 247.027344 177.261719 247.234375 C 176.757812 247.445312 176.246094 247.628906 175.722656 247.785156 C 175.199219 247.945312 174.667969 248.078125 174.132812 248.183594 C 173.597656 248.289062 173.058594 248.371094 172.511719 248.421875 C 171.96875 248.476562 171.425781 248.503906 170.878906 248.503906 L 70.753906 248.503906 C 70.207031 248.503906 69.660156 248.476562 69.117188 248.421875 C 68.574219 248.371094 68.03125 248.289062 67.496094 248.183594 C 66.960938 248.078125 66.429688 247.945312 65.910156 247.785156 C 65.386719 247.628906 64.871094 247.445312 64.367188 247.234375 C 63.863281 247.027344 63.367188 246.792969 62.886719 246.539062 C 62.402344 246.28125 61.9375 246 61.480469 245.699219 C 61.027344 245.394531 60.589844 245.070312 60.167969 244.722656 C 59.742188 244.378906 59.339844 244.011719 58.953125 243.628906 C 58.566406 243.242188 58.199219 242.839844 57.851562 242.417969 C 57.507812 241.996094 57.179688 241.558594 56.878906 241.105469 C 56.574219 240.652344 56.292969 240.183594 56.035156 239.703125 C 55.777344 239.222656 55.542969 238.730469 55.335938 238.226562 C 55.125 237.722656 54.941406 237.210938 54.785156 236.6875 C 54.625 236.164062 54.492188 235.636719 54.386719 235.101562 C 54.277344 234.566406 54.199219 234.027344 54.144531 233.484375 C 54.089844 232.945312 54.066406 232.398438 54.066406 231.855469 L 54.066406 98.660156 C 54.066406 98.113281 54.089844 97.570312 54.144531 97.027344 C 54.199219 96.484375 54.277344 95.945312 54.386719 95.410156 C 54.492188 94.875 54.625 94.347656 54.785156 93.824219 C 54.941406 93.304688 55.125 92.792969 55.335938 92.289062 C 55.542969 91.785156 55.777344 91.292969 56.035156 90.808594 C 56.292969 90.328125 56.574219 89.863281 56.878906 89.410156 C 57.179688 88.957031 57.507812 88.519531 57.851562 88.097656 C 58.199219 87.675781 58.566406 87.273438 58.953125 86.886719 C 59.339844 86.5 59.742188 86.132812 60.167969 85.789062 C 60.589844 85.441406 61.027344 85.117188 61.480469 84.816406 C 61.9375 84.511719 62.402344 84.234375 62.886719 83.976562 C 63.367188 83.71875 63.863281 83.484375 64.367188 83.277344 C 64.871094 83.066406 65.386719 82.882812 65.910156 82.726562 C 66.429688 82.566406 66.960938 82.4375 67.496094 82.328125 C 68.03125 82.222656 68.574219 82.144531 69.117188 82.089844 C 69.660156 82.035156 70.207031 82.007812 70.753906 82.007812 Z M 70.753906 82.007812 " fill-opacity="1" fill-rule="nonzero"/></g><g fill="#ffffff" fill-opacity="1"><g transform="translate(70.752509, 202.467952)"><g><path d="M 31.6875 -23.484375 C 31.6875 -21.273438 31.179688 -19.300781 30.171875 -17.5625 C 29.160156 -15.820312 27.710938 -14.472656 25.828125 -13.515625 C 23.941406 -12.566406 21.703125 -12.09375 19.109375 -12.09375 L 10.5625 -12.09375 L 10.5625 0 L 3.34375 0 L 3.34375 -34.359375 L 18.828125 -34.359375 C 22.941406 -34.359375 26.113281 -33.410156 28.34375 -31.515625 C 30.570312 -29.617188 31.6875 -26.941406 31.6875 -23.484375 Z M 24.421875 -23.359375 C 24.421875 -26.960938 22.285156 -28.765625 18.015625 -28.765625 L 10.5625 -28.765625 L 10.5625 -17.625 L 18.21875 -17.625 C 20.195312 -17.625 21.722656 -18.113281 22.796875 -19.09375 C 23.878906 -20.082031 24.421875 -21.503906 24.421875 -23.359375 Z M 24.421875 -23.359375 "/></g></g></g><g fill="#ffffff" fill-opacity="1"><g transform="translate(104.13794, 202.467952)"><g><path d="M 34.046875 -17.4375 C 34.046875 -13.894531 33.347656 -10.800781 31.953125 -8.15625 C 30.566406 -5.507812 28.597656 -3.488281 26.046875 -2.09375 C 23.492188 -0.695312 20.570312 0 17.28125 0 L 3.34375 0 L 3.34375 -34.359375 L 15.8125 -34.359375 C 21.613281 -34.359375 26.101562 -32.898438 29.28125 -29.984375 C 32.457031 -27.066406 34.046875 -22.882812 34.046875 -17.4375 Z M 26.796875 -17.4375 C 26.796875 -21.125 25.832031 -23.9375 23.90625 -25.875 C 21.976562 -27.820312 19.234375 -28.796875 15.671875 -28.796875 L 10.5625 -28.796875 L 10.5625 -5.5625 L 16.671875 -5.5625 C 19.765625 -5.5625 22.222656 -6.625 24.046875 -8.75 C 25.878906 -10.882812 26.796875 -13.78125 26.796875 -17.4375 Z M 26.796875 -17.4375 "/></g></g></g><g fill="#ffffff" fill-opacity="1"><g transform="translate(140.28513, 202.467952)"><g><path d="M 10.5625 -28.796875 L 10.5625 -18.171875 L 28.1875 -18.171875 L 28.1875 -12.609375 L 10.5625 -12.609375 L 10.5625 0 L 3.34375 0 L 3.34375 -34.359375 L 28.75 -34.359375 L 28.75 -28.796875 Z M 10.5625 -28.796875 "/></g></g></g><g clip-path="url(#fb0e8d53e4)"><path fill="#d13532" d="M 187.566406 156.597656 L 144.34375 128.792969 L 165.953125 111.394531 L 187.566406 131.957031 Z M 187.566406 156.597656 " fill-opacity="1" fill-rule="nonzero"/></g><g clip-path="url(#a47e22a30e)"><path fill="#d56c6f" d="M 137.503906 82.007812 L 137.503906 115.308594 C 137.503906 115.855469 137.527344 116.398438 137.582031 116.941406 C 137.636719 117.484375 137.714844 118.023438 137.824219 118.554688 C 137.929688 119.089844 138.0625 119.621094 138.222656 120.140625 C 138.378906 120.664062 138.5625 121.175781 138.773438 121.679688 C 138.980469 122.183594 139.214844 122.675781 139.472656 123.15625 C 139.730469 123.636719 140.011719 124.105469 140.316406 124.558594 C 140.617188 125.011719 140.945312 125.449219 141.289062 125.871094 C 141.636719 126.292969 142.003906 126.695312 142.390625 127.082031 C 142.777344 127.464844 143.179688 127.832031 143.605469 128.179688 C 144.027344 128.523438 144.464844 128.847656 144.917969 129.152344 C 145.375 129.453125 145.839844 129.734375 146.324219 129.992188 C 146.804688 130.25 147.300781 130.480469 147.804688 130.691406 C 148.308594 130.898438 148.824219 131.082031 149.347656 131.242188 C 149.867188 131.398438 150.398438 131.53125 150.933594 131.636719 C 151.46875 131.746094 152.011719 131.824219 152.554688 131.878906 C 153.097656 131.929688 153.644531 131.957031 154.191406 131.957031 L 187.566406 131.957031 Z M 137.503906 82.007812 " fill-opacity="1" fill-rule="nonzero"/></g><g clip-path="url(#93739430e2)"><g clip-path="url(#bbe5f91465)"><path fill="#d13532" d="M 187.5 225 L 331.199219 225 L 331.199219 337.5 L 187.5 337.5 Z M 187.5 225 " fill-opacity="1" fill-rule="nonzero"/></g></g><g clip-path="url(#18a6e7b626)"><path fill="#ffffff" d="M 216.527344 276.855469 L 216.527344 248.832031 L 199.566406 248.832031 L 199.566406 276.855469 L 187.5 276.855469 L 208.046875 303.554688 L 228.589844 276.855469 Z M 216.527344 276.855469 " fill-opacity="1" fill-rule="nonzero"/></g><g fill="#000000" fill-opacity="1"><g transform="translate(191.655153, 214.874986)"><g><path d="M 18.578125 -60.0625 L 24.1875 -60.0625 C 27.175781 -60.0625 29.054688 -59.378906 29.828125 -58.015625 C 30.597656 -56.648438 30.71875 -54.421875 30.1875 -51.328125 L 22.65625 -8.40625 C 22.175781 -5.632812 22.039062 -3.671875 22.25 -2.515625 C 22.46875 -1.367188 22.578125 -0.796875 22.578125 -0.796875 C 22.578125 -0.796875 22.226562 -0.660156 21.53125 -0.390625 C 20.84375 -0.128906 19.671875 0 18.015625 0 C 15.078125 0 13.207031 -0.675781 12.40625 -2.03125 C 11.613281 -3.394531 11.484375 -5.628906 12.015625 -8.734375 L 19.546875 -51.734375 C 19.648438 -52.535156 19.738281 -53.253906 19.8125 -53.890625 C 19.894531 -54.535156 19.9375 -55.125 19.9375 -55.65625 L 19.140625 -55.65625 C 15.503906 -55.65625 12.78125 -54.785156 10.96875 -53.046875 C 9.15625 -51.316406 8.25 -49.300781 8.25 -47 C 8.25 -45.882812 8.53125 -44.992188 9.09375 -44.328125 C 9.65625 -43.660156 10.441406 -43.328125 11.453125 -43.328125 C 11.878906 -43.328125 12.210938 -43.363281 12.453125 -43.4375 C 12.691406 -43.519531 12.8125 -43.5625 12.8125 -43.5625 C 12.8125 -43.5625 12.820312 -43.507812 12.84375 -43.40625 C 12.875 -43.300781 12.890625 -43.113281 12.890625 -42.84375 C 12.890625 -41.882812 12.378906 -40.894531 11.359375 -39.875 C 10.347656 -38.863281 8.832031 -38.359375 6.8125 -38.359375 C 4.195312 -38.359375 2.140625 -39.09375 0.640625 -40.5625 C -0.859375 -42.03125 -1.609375 -43.960938 -1.609375 -46.359375 C -1.609375 -50.316406 0.140625 -53.585938 3.640625 -56.171875 C 7.140625 -58.765625 12.117188 -60.0625 18.578125 -60.0625 Z M 18.578125 -60.0625 "/></g></g></g><g fill="#000000" fill-opacity="1"><g transform="translate(227.047915, 214.874986)"><g><path d="M 19.625 -60.0625 C 21.914062 -60.0625 24.113281 -59.96875 26.21875 -59.78125 C 28.332031 -59.59375 30.535156 -59.378906 32.828125 -59.140625 C 35.128906 -58.898438 37.742188 -58.6875 40.671875 -58.5 C 43.609375 -58.3125 47.054688 -58.21875 51.015625 -58.21875 C 53.359375 -58.21875 55.195312 -58.429688 56.53125 -58.859375 C 57.863281 -59.285156 58.53125 -59.5 58.53125 -59.5 C 58.75 -59.28125 58.953125 -58.941406 59.140625 -58.484375 C 59.328125 -58.035156 59.421875 -57.492188 59.421875 -56.859375 C 59.421875 -54.773438 58.671875 -53 57.171875 -51.53125 C 55.679688 -50.0625 53.203125 -49.328125 49.734375 -49.328125 C 47.859375 -49.328125 46.210938 -49.457031 44.796875 -49.71875 C 43.390625 -49.988281 42.03125 -50.320312 40.71875 -50.71875 C 39.414062 -51.125 37.988281 -51.566406 36.4375 -52.046875 L 28.828125 -8.40625 C 28.347656 -5.632812 28.210938 -3.671875 28.421875 -2.515625 C 28.640625 -1.367188 28.75 -0.796875 28.75 -0.796875 C 28.75 -0.796875 28.398438 -0.660156 27.703125 -0.390625 C 27.015625 -0.128906 25.84375 0 24.1875 0 C 21.25 0 19.378906 -0.675781 18.578125 -2.03125 C 17.773438 -3.394531 17.640625 -5.628906 18.171875 -8.734375 L 25.703125 -51.734375 C 25.867188 -52.691406 25.976562 -53.453125 26.03125 -54.015625 C 26.082031 -54.578125 26.109375 -54.859375 26.109375 -54.859375 C 24.878906 -55.117188 23.847656 -55.316406 23.015625 -55.453125 C 22.191406 -55.585938 21.003906 -55.65625 19.453125 -55.65625 C 15.828125 -55.65625 13.050781 -54.785156 11.125 -53.046875 C 9.207031 -51.316406 8.25 -49.300781 8.25 -47 C 8.25 -45.882812 8.53125 -44.992188 9.09375 -44.328125 C 9.65625 -43.660156 10.441406 -43.328125 11.453125 -43.328125 C 11.878906 -43.328125 12.210938 -43.363281 12.453125 -43.4375 C 12.691406 -43.519531 12.8125 -43.5625 12.8125 -43.5625 C 12.8125 -43.5625 12.820312 -43.507812 12.84375 -43.40625 C 12.875 -43.300781 12.890625 -43.113281 12.890625 -42.84375 C 12.890625 -41.882812 12.378906 -40.894531 11.359375 -39.875 C 10.347656 -38.863281 8.832031 -38.359375 6.8125 -38.359375 C 4.195312 -38.359375 2.140625 -39.09375 0.640625 -40.5625 C -0.859375 -42.03125 -1.609375 -43.960938 -1.609375 -46.359375 C -1.609375 -50.316406 0.148438 -53.585938 3.671875 -56.171875 C 7.203125 -58.765625 12.519531 -60.0625 19.625 -60.0625 Z M 19.625 -60.0625 "/></g></g></g><g fill="#ffffff" fill-opacity="1"><g transform="translate(230.360493, 285.918837)"><g><path d="M 10.96875 -15 L 9.03125 -4 C 8.882812 -3.195312 8.632812 -2.523438 8.28125 -1.984375 C 8.519531 -1.910156 8.785156 -1.847656 9.078125 -1.796875 C 9.378906 -1.753906 9.703125 -1.734375 10.046875 -1.734375 C 11.597656 -1.734375 12.9375 -2.140625 14.0625 -2.953125 C 15.1875 -3.765625 16.046875 -4.898438 16.640625 -6.359375 C 17.234375 -7.816406 17.53125 -9.503906 17.53125 -11.421875 C 17.53125 -13.210938 17.179688 -14.742188 16.484375 -16.015625 C 15.796875 -17.296875 14.800781 -18.28125 13.5 -18.96875 C 12.195312 -19.65625 10.632812 -20 8.8125 -20 C 7.382812 -20 6.242188 -19.804688 5.390625 -19.421875 C 4.535156 -19.046875 3.914062 -18.570312 3.53125 -18 C 3.15625 -17.4375 2.96875 -16.875 2.96875 -16.3125 C 2.96875 -15.914062 3.066406 -15.597656 3.265625 -15.359375 C 3.460938 -15.117188 3.742188 -15 4.109375 -15 C 4.265625 -15 4.382812 -15.007812 4.46875 -15.03125 C 4.5625 -15.0625 4.609375 -15.078125 4.609375 -15.078125 C 4.609375 -15.078125 4.613281 -15.054688 4.625 -15.015625 C 4.632812 -14.984375 4.640625 -14.921875 4.640625 -14.828125 C 4.640625 -14.472656 4.457031 -14.113281 4.09375 -13.75 C 3.726562 -13.382812 3.179688 -13.203125 2.453125 -13.203125 C 1.503906 -13.203125 0.757812 -13.46875 0.21875 -14 C -0.3125 -14.53125 -0.578125 -15.226562 -0.578125 -16.09375 C -0.578125 -17.050781 -0.238281 -17.945312 0.4375 -18.78125 C 1.125 -19.613281 2.148438 -20.285156 3.515625 -20.796875 C 4.890625 -21.316406 6.601562 -21.578125 8.65625 -21.578125 C 11.3125 -21.578125 13.597656 -21.125 15.515625 -20.21875 C 17.429688 -19.320312 18.910156 -18.082031 19.953125 -16.5 C 21.003906 -14.914062 21.53125 -13.082031 21.53125 -11 C 21.53125 -8.707031 21.078125 -6.738281 20.171875 -5.09375 C 19.273438 -3.445312 18.035156 -2.1875 16.453125 -1.3125 C 14.867188 -0.4375 13.050781 0 11 0 C 10.132812 0 9.375 -0.078125 8.71875 -0.234375 C 8.0625 -0.398438 7.503906 -0.582031 7.046875 -0.78125 C 6.628906 -0.488281 6.164062 -0.285156 5.65625 -0.171875 C 5.144531 -0.0546875 4.625 0 4.09375 0 C 3.25 0 2.644531 -0.175781 2.28125 -0.53125 C 1.925781 -0.882812 1.75 -1.273438 1.75 -1.703125 C 1.75 -2.160156 1.921875 -2.5625 2.265625 -2.90625 C 2.617188 -3.25 3.175781 -3.421875 3.9375 -3.421875 C 4.269531 -3.421875 4.644531 -3.375 5.0625 -3.28125 L 7.140625 -15.140625 C 7.304688 -16.140625 7.351562 -16.835938 7.28125 -17.234375 C 7.207031 -17.640625 7.171875 -17.84375 7.171875 -17.84375 C 7.171875 -17.84375 7.296875 -17.890625 7.546875 -17.984375 C 7.796875 -18.078125 8.21875 -18.125 8.8125 -18.125 C 9.882812 -18.125 10.554688 -17.878906 10.828125 -17.390625 C 11.109375 -16.910156 11.15625 -16.113281 10.96875 -15 Z M 10.96875 -15 "/></g></g></g><g fill="#ffffff" fill-opacity="1"><g transform="translate(253.035382, 285.918837)"><g><path d="M 11.828125 -21.578125 C 13.992188 -21.578125 15.675781 -20.863281 16.875 -19.4375 C 18.070312 -18.007812 18.671875 -16.054688 18.671875 -13.578125 C 18.671875 -11.679688 18.429688 -9.910156 17.953125 -8.265625 C 17.472656 -6.628906 16.78125 -5.1875 15.875 -3.9375 C 14.976562 -2.695312 13.890625 -1.726562 12.609375 -1.03125 C 11.335938 -0.34375 9.894531 0 8.28125 0 C 6.957031 0 5.78125 -0.289062 4.75 -0.875 C 3.726562 -1.457031 2.921875 -2.34375 2.328125 -3.53125 C 1.734375 -4.726562 1.4375 -6.21875 1.4375 -8 C 1.4375 -9.957031 1.679688 -11.757812 2.171875 -13.40625 C 2.660156 -15.0625 3.359375 -16.5 4.265625 -17.71875 C 5.179688 -18.9375 6.273438 -19.882812 7.546875 -20.5625 C 8.828125 -21.238281 10.253906 -21.578125 11.828125 -21.578125 Z M 5.703125 -10.796875 C 5.609375 -10.097656 5.53125 -9.394531 5.46875 -8.6875 C 5.40625 -7.976562 5.375 -7.363281 5.375 -6.84375 C 5.375 -5.519531 5.523438 -4.472656 5.828125 -3.703125 C 6.128906 -2.941406 6.519531 -2.394531 7 -2.0625 C 7.488281 -1.738281 8.035156 -1.578125 8.640625 -1.578125 C 9.878906 -1.578125 11.023438 -2.332031 12.078125 -3.84375 C 13.140625 -5.363281 13.910156 -7.679688 14.390625 -10.796875 C 14.503906 -11.484375 14.582031 -12.179688 14.625 -12.890625 C 14.675781 -13.597656 14.703125 -14.210938 14.703125 -14.734375 C 14.703125 -16.054688 14.554688 -17.101562 14.265625 -17.875 C 13.984375 -18.644531 13.597656 -19.191406 13.109375 -19.515625 C 12.617188 -19.835938 12.066406 -20 11.453125 -20 C 10.703125 -20 9.945312 -19.6875 9.1875 -19.0625 C 8.4375 -18.4375 7.753906 -17.453125 7.140625 -16.109375 C 6.523438 -14.773438 6.046875 -13.003906 5.703125 -10.796875 Z M 5.703125 -10.796875 "/></g></g></g><g fill="#ffffff" fill-opacity="1"><g transform="translate(273.149275, 285.918837)"><g><path d="M 11.109375 -2.5 C 11.835938 -2.5 12.578125 -2.921875 13.328125 -3.765625 C 14.078125 -4.609375 14.773438 -6.050781 15.421875 -8.09375 L 17.125 -18.59375 C 17.28125 -19.59375 17.320312 -20.289062 17.25 -20.6875 C 17.1875 -21.09375 17.15625 -21.296875 17.15625 -21.296875 C 17.15625 -21.296875 17.28125 -21.34375 17.53125 -21.4375 C 17.78125 -21.53125 18.203125 -21.578125 18.796875 -21.578125 C 19.867188 -21.578125 20.539062 -21.332031 20.8125 -20.84375 C 21.09375 -20.363281 21.140625 -19.566406 20.953125 -18.453125 L 19.59375 -10.796875 C 19.25 -8.816406 19.078125 -7.234375 19.078125 -6.046875 C 19.078125 -4.722656 19.269531 -3.800781 19.65625 -3.28125 C 20.039062 -2.757812 20.566406 -2.5 21.234375 -2.5 C 22.296875 -2.5 23.320312 -3.34375 24.3125 -5.03125 C 24.71875 -5.726562 25.101562 -6.566406 25.46875 -7.546875 C 25.832031 -8.535156 26.15625 -9.597656 26.4375 -10.734375 C 26.71875 -11.867188 26.929688 -12.992188 27.078125 -14.109375 C 27.234375 -15.234375 27.3125 -16.273438 27.3125 -17.234375 C 27.3125 -18.546875 27.222656 -19.597656 27.046875 -20.390625 C 26.878906 -21.179688 26.796875 -21.578125 26.796875 -21.578125 C 26.796875 -21.578125 26.894531 -21.617188 27.09375 -21.703125 C 27.300781 -21.796875 27.613281 -21.84375 28.03125 -21.84375 C 28.875 -21.84375 29.429688 -21.554688 29.703125 -20.984375 C 29.972656 -20.421875 30.109375 -19.691406 30.109375 -18.796875 C 30.109375 -17.929688 29.972656 -16.882812 29.703125 -15.65625 C 29.429688 -14.425781 29.085938 -13.148438 28.671875 -11.828125 C 28.265625 -10.503906 27.859375 -9.265625 27.453125 -8.109375 C 26.578125 -5.597656 25.570312 -3.617188 24.4375 -2.171875 C 23.300781 -0.722656 21.890625 0 20.203125 0 C 18.921875 0 17.875 -0.351562 17.0625 -1.0625 C 16.257812 -1.769531 15.722656 -2.738281 15.453125 -3.96875 C 14.703125 -2.738281 13.859375 -1.769531 12.921875 -1.0625 C 11.984375 -0.351562 10.984375 0 9.921875 0 C 8.335938 0 7.164062 -0.523438 6.40625 -1.578125 C 5.644531 -2.640625 5.265625 -4.1875 5.265625 -6.21875 C 5.265625 -6.851562 5.300781 -7.535156 5.375 -8.265625 C 5.457031 -9.003906 5.566406 -9.789062 5.703125 -10.625 L 7 -18.59375 C 7.050781 -18.976562 7.085938 -19.304688 7.109375 -19.578125 C 7.128906 -19.859375 7.140625 -20 7.140625 -20 L 6.875 -20 C 5.570312 -20 4.59375 -19.6875 3.9375 -19.0625 C 3.289062 -18.4375 2.96875 -17.710938 2.96875 -16.890625 C 2.96875 -16.492188 3.066406 -16.175781 3.265625 -15.9375 C 3.460938 -15.695312 3.742188 -15.578125 4.109375 -15.578125 C 4.265625 -15.578125 4.382812 -15.585938 4.46875 -15.609375 C 4.5625 -15.640625 4.609375 -15.65625 4.609375 -15.65625 C 4.609375 -15.65625 4.613281 -15.632812 4.625 -15.59375 C 4.632812 -15.5625 4.640625 -15.492188 4.640625 -15.390625 C 4.640625 -15.046875 4.457031 -14.691406 4.09375 -14.328125 C 3.726562 -13.960938 3.179688 -13.78125 2.453125 -13.78125 C 1.503906 -13.78125 0.757812 -14.046875 0.21875 -14.578125 C -0.3125 -15.109375 -0.578125 -15.804688 -0.578125 -16.671875 C -0.578125 -18.085938 0.046875 -19.257812 1.296875 -20.1875 C 2.554688 -21.113281 4.347656 -21.578125 6.671875 -21.578125 L 8.65625 -21.578125 C 9.738281 -21.578125 10.414062 -21.332031 10.6875 -20.84375 C 10.96875 -20.363281 11.015625 -19.566406 10.828125 -18.453125 L 9.203125 -9.296875 C 9.085938 -8.609375 9.003906 -7.976562 8.953125 -7.40625 C 8.910156 -6.84375 8.890625 -6.34375 8.890625 -5.90625 C 8.890625 -4.613281 9.097656 -3.722656 9.515625 -3.234375 C 9.941406 -2.742188 10.472656 -2.5 11.109375 -2.5 Z M 11.109375 -2.5 "/></g></g></g><g fill="#ffffff" fill-opacity="1"><g transform="translate(304.111427, 285.918837)"><g><path d="M 4.8125 -5.875 L 7.015625 -18.53125 C 7.117188 -19.03125 7.171875 -19.351562 7.171875 -19.5 C 7.171875 -19.644531 7.175781 -19.8125 7.1875 -20 L 6.875 -20 C 5.570312 -20 4.59375 -19.6875 3.9375 -19.0625 C 3.289062 -18.4375 2.96875 -17.710938 2.96875 -16.890625 C 2.96875 -16.492188 3.066406 -16.175781 3.265625 -15.9375 C 3.460938 -15.695312 3.742188 -15.578125 4.109375 -15.578125 C 4.265625 -15.578125 4.382812 -15.585938 4.46875 -15.609375 C 4.5625 -15.640625 4.609375 -15.65625 4.609375 -15.65625 C 4.609375 -15.65625 4.613281 -15.632812 4.625 -15.59375 C 4.632812 -15.5625 4.640625 -15.492188 4.640625 -15.390625 C 4.640625 -15.046875 4.457031 -14.691406 4.09375 -14.328125 C 3.726562 -13.960938 3.179688 -13.78125 2.453125 -13.78125 C 1.503906 -13.78125 0.757812 -14.046875 0.21875 -14.578125 C -0.3125 -15.109375 -0.578125 -15.804688 -0.578125 -16.671875 C -0.578125 -18.085938 0.046875 -19.257812 1.296875 -20.1875 C 2.554688 -21.113281 4.347656 -21.578125 6.671875 -21.578125 L 9.234375 -21.578125 C 10.003906 -21.578125 10.609375 -21.410156 11.046875 -21.078125 C 11.492188 -20.742188 11.832031 -20.15625 12.0625 -19.3125 L 16.4375 -3.890625 L 18.125 -13.5 C 18.488281 -15.488281 18.65625 -17.070312 18.625 -18.25 C 18.601562 -19.4375 18.519531 -20.285156 18.375 -20.796875 C 18.226562 -21.316406 18.15625 -21.578125 18.15625 -21.578125 C 18.15625 -21.578125 18.234375 -21.617188 18.390625 -21.703125 C 18.546875 -21.796875 18.804688 -21.84375 19.171875 -21.84375 C 19.722656 -21.84375 20.117188 -21.707031 20.359375 -21.4375 C 20.597656 -21.164062 20.71875 -20.695312 20.71875 -20.03125 C 20.71875 -19.550781 20.664062 -18.953125 20.5625 -18.234375 C 20.457031 -17.515625 20.316406 -16.675781 20.140625 -15.71875 L 17.9375 -3.046875 C 17.757812 -2.085938 17.679688 -1.394531 17.703125 -0.96875 C 17.722656 -0.550781 17.742188 -0.320312 17.765625 -0.28125 C 17.765625 -0.28125 17.609375 -0.234375 17.296875 -0.140625 C 16.992188 -0.046875 16.46875 0 15.71875 0 C 14.925781 0 14.320312 -0.1875 13.90625 -0.5625 C 13.5 -0.9375 13.191406 -1.507812 12.984375 -2.28125 L 8.546875 -17.90625 L 6.828125 -8.09375 C 6.472656 -6.113281 6.3125 -4.523438 6.34375 -3.328125 C 6.375 -2.140625 6.457031 -1.285156 6.59375 -0.765625 C 6.726562 -0.253906 6.796875 0 6.796875 0 C 6.796875 0 6.71875 0.0390625 6.5625 0.125 C 6.40625 0.21875 6.144531 0.265625 5.78125 0.265625 C 5.25 0.265625 4.859375 0.125 4.609375 -0.15625 C 4.359375 -0.4375 4.234375 -0.898438 4.234375 -1.546875 C 4.234375 -2.046875 4.285156 -2.648438 4.390625 -3.359375 C 4.492188 -4.078125 4.632812 -4.914062 4.8125 -5.875 Z M 4.8125 -5.875 "/></g></g></g><g clip-path="url(#7f313458d4)"><g clip-path="url(#40635397ee)"><path fill="#de3b38" d="M 66.585938 155.738281 L 182.554688 155.738281 L 182.554688 211.332031 L 66.585938 211.332031 Z M 66.585938 155.738281 " fill-opacity="1" fill-rule="nonzero"/></g></g><g fill="#ffffff" fill-opacity="1"><g transform="translate(66.20915, 200.813885)"><g><path d="M 18.78125 -27.375 L 16.421875 -13.921875 C 16.421875 -13.921875 16.675781 -13.882812 17.1875 -13.8125 C 17.695312 -13.738281 18.378906 -13.703125 19.234375 -13.703125 C 21.179688 -13.703125 22.867188 -14.195312 24.296875 -15.1875 C 25.734375 -16.175781 26.851562 -17.523438 27.65625 -19.234375 C 28.457031 -20.941406 28.859375 -22.851562 28.859375 -24.96875 C 28.859375 -28.101562 27.804688 -30.648438 25.703125 -32.609375 C 23.609375 -34.566406 20.34375 -35.546875 15.90625 -35.546875 C 13.351562 -35.546875 11.289062 -35.203125 9.71875 -34.515625 C 8.144531 -33.835938 7.007812 -32.992188 6.3125 -31.984375 C 5.613281 -30.984375 5.265625 -29.988281 5.265625 -29 C 5.265625 -28.289062 5.441406 -27.722656 5.796875 -27.296875 C 6.160156 -26.867188 6.664062 -26.65625 7.3125 -26.65625 C 7.582031 -26.65625 7.796875 -26.679688 7.953125 -26.734375 C 8.109375 -26.785156 8.1875 -26.8125 8.1875 -26.8125 C 8.1875 -26.8125 8.191406 -26.773438 8.203125 -26.703125 C 8.222656 -26.628906 8.234375 -26.507812 8.234375 -26.34375 C 8.234375 -25.726562 7.910156 -25.097656 7.265625 -24.453125 C 6.617188 -23.804688 5.644531 -23.484375 4.34375 -23.484375 C 2.675781 -23.484375 1.363281 -23.953125 0.40625 -24.890625 C -0.539062 -25.828125 -1.015625 -27.0625 -1.015625 -28.59375 C -1.015625 -30.300781 -0.40625 -31.894531 0.8125 -33.375 C 2.039062 -34.863281 3.914062 -36.066406 6.4375 -36.984375 C 8.96875 -37.910156 12.175781 -38.375 16.0625 -38.375 C 20.800781 -38.375 24.628906 -37.765625 27.546875 -36.546875 C 30.460938 -35.335938 32.59375 -33.703125 33.9375 -31.640625 C 35.289062 -29.578125 35.96875 -27.25 35.96875 -24.65625 C 35.96875 -22 35.332031 -19.628906 34.0625 -17.546875 C 32.800781 -15.460938 31.007812 -13.832031 28.6875 -12.65625 C 26.375 -11.476562 23.632812 -10.890625 20.46875 -10.890625 C 19.539062 -10.890625 18.703125 -10.921875 17.953125 -10.984375 C 17.203125 -11.054688 16.535156 -11.144531 15.953125 -11.25 L 14.9375 -5.375 C 14.632812 -3.601562 14.550781 -2.347656 14.6875 -1.609375 C 14.820312 -0.878906 14.890625 -0.515625 14.890625 -0.515625 C 14.890625 -0.515625 14.664062 -0.425781 14.21875 -0.25 C 13.78125 -0.0820312 13.03125 0 11.96875 0 C 10.09375 0 8.898438 -0.429688 8.390625 -1.296875 C 7.878906 -2.171875 7.796875 -3.597656 8.140625 -5.578125 L 11.96875 -27.625 C 12.28125 -29.394531 12.363281 -30.640625 12.21875 -31.359375 C 12.082031 -32.078125 12.015625 -32.4375 12.015625 -32.4375 C 12.015625 -32.4375 12.238281 -32.519531 12.6875 -32.6875 C 13.132812 -32.851562 13.882812 -32.9375 14.9375 -32.9375 C 16.84375 -32.9375 18.039062 -32.5 18.53125 -31.625 C 19.03125 -30.757812 19.113281 -29.34375 18.78125 -27.375 Z M 18.78125 -27.375 "/></g></g></g><g fill="#ffffff" fill-opacity="1"><g transform="translate(103.183864, 200.813885)"><g><path d="M 19.484375 -26.65625 L 16.0625 -7.109375 C 15.789062 -5.679688 15.347656 -4.488281 14.734375 -3.53125 C 15.140625 -3.394531 15.609375 -3.28125 16.140625 -3.1875 C 16.671875 -3.101562 17.242188 -3.0625 17.859375 -3.0625 C 20.617188 -3.0625 22.992188 -3.785156 24.984375 -5.234375 C 26.984375 -6.691406 28.507812 -8.710938 29.5625 -11.296875 C 30.625 -13.890625 31.15625 -16.894531 31.15625 -20.3125 C 31.15625 -23.476562 30.539062 -26.195312 29.3125 -28.46875 C 28.082031 -30.738281 26.304688 -32.484375 23.984375 -33.703125 C 21.671875 -34.929688 18.894531 -35.546875 15.65625 -35.546875 C 13.132812 -35.546875 11.113281 -35.203125 9.59375 -34.515625 C 8.070312 -33.835938 6.96875 -32.992188 6.28125 -31.984375 C 5.601562 -30.984375 5.265625 -29.988281 5.265625 -29 C 5.265625 -28.289062 5.441406 -27.722656 5.796875 -27.296875 C 6.160156 -26.867188 6.664062 -26.65625 7.3125 -26.65625 C 7.582031 -26.65625 7.796875 -26.679688 7.953125 -26.734375 C 8.109375 -26.785156 8.1875 -26.8125 8.1875 -26.8125 C 8.1875 -26.8125 8.191406 -26.773438 8.203125 -26.703125 C 8.222656 -26.628906 8.234375 -26.507812 8.234375 -26.34375 C 8.234375 -25.726562 7.910156 -25.097656 7.265625 -24.453125 C 6.617188 -23.804688 5.644531 -23.484375 4.34375 -23.484375 C 2.675781 -23.484375 1.363281 -23.953125 0.40625 -24.890625 C -0.539062 -25.828125 -1.015625 -27.0625 -1.015625 -28.59375 C -1.015625 -30.300781 -0.410156 -31.894531 0.796875 -33.375 C 2.003906 -34.863281 3.828125 -36.066406 6.265625 -36.984375 C 8.703125 -37.910156 11.742188 -38.375 15.390625 -38.375 C 20.097656 -38.375 24.15625 -37.570312 27.5625 -35.96875 C 30.976562 -34.363281 33.613281 -32.15625 35.46875 -29.34375 C 37.332031 -26.53125 38.265625 -23.265625 38.265625 -19.546875 C 38.265625 -15.484375 37.460938 -11.984375 35.859375 -9.046875 C 34.253906 -6.117188 32.046875 -3.878906 29.234375 -2.328125 C 26.421875 -0.773438 23.191406 0 19.546875 0 C 18.003906 0 16.65625 -0.144531 15.5 -0.4375 C 14.34375 -0.726562 13.351562 -1.039062 12.53125 -1.375 C 11.78125 -0.863281 10.953125 -0.503906 10.046875 -0.296875 C 9.148438 -0.0976562 8.222656 0 7.265625 0 C 5.765625 0 4.695312 -0.3125 4.0625 -0.9375 C 3.4375 -1.570312 3.125 -2.265625 3.125 -3.015625 C 3.125 -3.835938 3.429688 -4.554688 4.046875 -5.171875 C 4.660156 -5.785156 5.648438 -6.09375 7.015625 -6.09375 C 7.585938 -6.09375 8.25 -6.003906 9 -5.828125 L 12.6875 -26.90625 C 12.988281 -28.675781 13.070312 -29.921875 12.9375 -30.640625 C 12.800781 -31.359375 12.734375 -31.71875 12.734375 -31.71875 C 12.734375 -31.71875 12.953125 -31.800781 13.390625 -31.96875 C 13.835938 -32.144531 14.59375 -32.234375 15.65625 -32.234375 C 17.5625 -32.234375 18.757812 -31.796875 19.25 -30.921875 C 19.75 -30.054688 19.828125 -28.632812 19.484375 -26.65625 Z M 19.484375 -26.65625 "/></g></g></g><g fill="#ffffff" fill-opacity="1"><g transform="translate(143.482729, 200.813885)"><g><path d="M 12.9375 -38.375 C 14.34375 -38.375 15.640625 -38.3125 16.828125 -38.1875 C 18.023438 -38.070312 19.28125 -37.9375 20.59375 -37.78125 C 21.90625 -37.625 23.429688 -37.484375 25.171875 -37.359375 C 26.910156 -37.242188 29.054688 -37.1875 31.609375 -37.1875 C 33.109375 -37.1875 34.285156 -37.320312 35.140625 -37.59375 C 35.992188 -37.875 36.421875 -38.015625 36.421875 -38.015625 C 36.554688 -37.867188 36.679688 -37.648438 36.796875 -37.359375 C 36.921875 -37.078125 36.984375 -36.734375 36.984375 -36.328125 C 36.984375 -34.992188 36.503906 -33.859375 35.546875 -32.921875 C 34.597656 -31.984375 33.015625 -31.515625 30.796875 -31.515625 C 29.128906 -31.515625 27.660156 -31.65625 26.390625 -31.9375 C 25.128906 -32.226562 23.953125 -32.597656 22.859375 -33.046875 C 21.773438 -33.492188 20.648438 -33.90625 19.484375 -34.28125 L 17.296875 -21.84375 L 24 -21.84375 C 24.914062 -21.84375 25.644531 -21.875 26.1875 -21.9375 C 26.738281 -22.007812 27.015625 -22.046875 27.015625 -22.046875 C 27.015625 -22.046875 27.082031 -21.9375 27.21875 -21.71875 C 27.351562 -21.5 27.421875 -21.148438 27.421875 -20.671875 C 27.421875 -20.015625 27.164062 -19.429688 26.65625 -18.921875 C 26.144531 -18.410156 25.222656 -18.15625 23.890625 -18.15625 C 22.765625 -18.15625 21.628906 -18.234375 20.484375 -18.390625 C 19.347656 -18.546875 18.113281 -18.691406 16.78125 -18.828125 L 14.421875 -5.375 C 14.117188 -3.601562 14.035156 -2.347656 14.171875 -1.609375 C 14.304688 -0.878906 14.375 -0.515625 14.375 -0.515625 C 14.375 -0.515625 14.148438 -0.425781 13.703125 -0.25 C 13.265625 -0.0820312 12.515625 0 11.453125 0 C 9.578125 0 8.382812 -0.429688 7.875 -1.296875 C 7.363281 -2.171875 7.28125 -3.597656 7.625 -5.578125 L 12.4375 -33.046875 C 12.53125 -33.628906 12.59375 -34.109375 12.625 -34.484375 C 12.664062 -34.859375 12.6875 -35.210938 12.6875 -35.546875 L 12.21875 -35.546875 C 9.90625 -35.546875 8.164062 -34.992188 7 -33.890625 C 5.84375 -32.785156 5.265625 -31.5 5.265625 -30.03125 C 5.265625 -29.3125 5.441406 -28.738281 5.796875 -28.3125 C 6.160156 -27.882812 6.664062 -27.671875 7.3125 -27.671875 C 7.582031 -27.671875 7.796875 -27.695312 7.953125 -27.75 C 8.109375 -27.800781 8.1875 -27.828125 8.1875 -27.828125 C 8.1875 -27.828125 8.191406 -27.789062 8.203125 -27.71875 C 8.222656 -27.65625 8.234375 -27.539062 8.234375 -27.375 C 8.234375 -26.757812 7.910156 -26.125 7.265625 -25.46875 C 6.617188 -24.820312 5.644531 -24.5 4.34375 -24.5 C 2.675781 -24.5 1.363281 -24.96875 0.40625 -25.90625 C -0.539062 -26.84375 -1.015625 -28.082031 -1.015625 -29.625 C -1.015625 -32.144531 0.125 -34.234375 2.40625 -35.890625 C 4.6875 -37.546875 8.195312 -38.375 12.9375 -38.375 Z M 12.9375 -38.375 "/></g></g></g></svg>